<svg xmlns="http://www.w3.org/2000/svg" xmlns:xlink="http://www.w3.org/1999/xlink" width="330" zoomAndPan="magnify" viewBox="0 0 247.5 94.499997" height="126" preserveAspectRatio="xMidYMid meet" version="1.0"><defs><g/><clipPath id="ae4e43e13d"><path d="M 0.402344 0 L 106 0 L 106 89.527344 L 0.402344 89.527344 Z M 0.402344 0 " clip-rule="nonzero"/></clipPath><clipPath id="1a3938dec6"><path d="M 35 18 L 149.613281 18 L 149.613281 85 L 35 85 Z M 35 18 " clip-rule="nonzero"/></clipPath><clipPath id="c3c0dca9b7"><path d="M 40.796875 18.71875 L 101 18.71875 L 101 93.324219 L 40.796875 93.324219 Z M 40.796875 18.71875 " clip-rule="nonzero"/></clipPath><clipPath id="00329909be"><path d="M 40.796875 18.71875 L 101.226562 18.71875 L 101.226562 93.324219 L 40.796875 93.324219 Z M 40.796875 18.71875 " clip-rule="nonzero"/></clipPath><clipPath id="6d18e50d65"><path d="M 46.066406 25.257812 L 96 25.257812 L 96 86.433594 L 46.066406 86.433594 Z M 46.066406 25.257812 " clip-rule="nonzero"/></clipPath><clipPath id="90ce585f9b"><path d="M 46.066406 25.257812 L 96.054688 25.257812 L 96.054688 86.433594 L 46.066406 86.433594 Z M 46.066406 25.257812 " clip-rule="nonzero"/></clipPath><clipPath id="0469a6d337"><path d="M 46.066406 25.257812 L 70.6875 25.257812 L 70.6875 86.433594 L 46.066406 86.433594 Z M 46.066406 25.257812 " clip-rule="nonzero"/></clipPath></defs><g clip-path="url(#ae4e43e13d)"><path fill="#0092e6" d="M 100.347656 43.222656 C 94.34375 47.359375 89.367188 52.335938 84.628906 57.621094 C 82.25 60.25 79.929688 62.96875 77.519531 65.667969 C 75.128906 68.382812 72.628906 71.0625 69.957031 73.683594 C 67.257812 76.269531 64.386719 78.808594 61.152344 81.015625 C 59.546875 82.125 57.867188 83.175781 56.105469 84.117188 C 54.339844 85.050781 52.496094 85.875 50.597656 86.585938 C 46.808594 88.023438 42.761719 88.863281 38.730469 89.1875 C 37.722656 89.265625 36.714844 89.320312 35.707031 89.335938 L 35.226562 89.335938 L 34.21875 89.316406 C 34.019531 89.316406 33.710938 89.296875 33.429688 89.277344 L 32.582031 89.222656 C 30.421875 89.054688 28.367188 88.707031 26.300781 88.171875 C 22.195312 87.105469 18.265625 85.292969 14.785156 82.824219 C 11.316406 80.339844 8.304688 77.203125 5.972656 73.617188 C 3.640625 70.03125 1.976562 66.003906 1.148438 61.828125 C 0.941406 60.785156 0.773438 59.734375 0.667969 58.679688 L 0.601562 58.089844 L 0.574219 57.769531 L 0.535156 57.097656 C 0.507812 56.644531 0.472656 56.234375 0.472656 55.617188 C 0.46875 55.054688 0.449219 54.457031 0.46875 53.929688 L 0.542969 52.339844 C 0.636719 51.285156 0.742188 50.230469 0.925781 49.179688 C 1.613281 44.992188 3.082031 40.925781 5.269531 37.308594 C 7.441406 33.683594 10.265625 30.464844 13.566406 27.867188 C 16.890625 25.296875 20.671875 23.339844 24.671875 22.128906 C 26.671875 21.519531 28.726562 21.109375 30.796875 20.902344 C 31.3125 20.835938 31.832031 20.800781 32.347656 20.777344 C 32.867188 20.75 33.382812 20.71875 33.902344 20.726562 L 35.28125 20.726562 L 35.367188 20.734375 L 35.535156 20.742188 L 36.878906 20.820312 L 32.785156 23.285156 C 34.578125 19.921875 36.777344 16.785156 39.355469 14.015625 C 41.925781 11.242188 44.824219 8.792969 47.992188 6.773438 C 51.160156 4.765625 54.570312 3.167969 58.109375 2.03125 C 61.652344 0.894531 65.332031 0.265625 69 0.0820312 C 70.835938 -0.00390625 72.671875 0.0117188 74.488281 0.195312 L 75.78125 0.308594 L 77.171875 0.503906 C 78.113281 0.613281 79 0.800781 79.886719 0.984375 C 81.660156 1.355469 83.398438 1.875 85.101562 2.46875 C 85.953125 2.757812 86.777344 3.128906 87.613281 3.453125 C 88.433594 3.8125 89.238281 4.214844 90.042969 4.605469 C 90.824219 5.042969 91.617188 5.449219 92.378906 5.914062 C 93.125 6.402344 93.902344 6.832031 94.613281 7.363281 C 95.332031 7.886719 96.0625 8.382812 96.738281 8.957031 L 97.765625 9.792969 C 98.101562 10.074219 98.421875 10.382812 98.75 10.675781 C 99.40625 11.257812 100.023438 11.882812 100.625 12.519531 C 101.246094 13.132812 101.800781 13.816406 102.371094 14.46875 C 102.949219 15.117188 103.449219 15.839844 103.984375 16.515625 C 104.492188 17.21875 104.953125 17.953125 105.4375 18.664062 C 104.242188 17.417969 103.027344 16.210938 101.730469 15.101562 C 101.074219 14.558594 100.441406 13.996094 99.742188 13.503906 L 98.726562 12.746094 C 98.382812 12.503906 98.019531 12.28125 97.671875 12.042969 C 97.320312 11.8125 96.980469 11.566406 96.621094 11.347656 L 95.535156 10.703125 C 94.828125 10.257812 94.066406 9.894531 93.332031 9.507812 C 92.601562 9.109375 91.820312 8.800781 91.074219 8.445312 C 90.3125 8.113281 89.527344 7.839844 88.761719 7.53125 C 87.972656 7.277344 87.191406 7.015625 86.40625 6.777344 C 85.605469 6.578125 84.824219 6.332031 84.019531 6.167969 C 82.417969 5.824219 80.804688 5.550781 79.183594 5.414062 C 78.375 5.335938 77.566406 5.257812 76.789062 5.253906 L 75.617188 5.21875 L 74.335938 5.246094 C 72.71875 5.25 71.113281 5.4375 69.53125 5.664062 C 66.363281 6.132812 63.277344 6.996094 60.375 8.230469 C 57.460938 9.453125 54.722656 11.035156 52.238281 12.925781 C 49.742188 14.800781 47.5 16.988281 45.574219 19.40625 C 43.652344 21.824219 42.007812 24.449219 40.738281 27.234375 L 39.617188 29.691406 L 36.640625 29.699219 L 35.039062 29.699219 C 35.269531 29.703125 35.082031 29.703125 35.125 29.703125 L 35.089844 29.707031 L 34.804688 29.726562 L 34.230469 29.757812 C 33.851562 29.773438 33.472656 29.824219 33.097656 29.867188 C 32.71875 29.90625 32.339844 29.953125 31.96875 30.027344 C 30.476562 30.28125 29 30.621094 27.585938 31.140625 C 24.75 32.152344 22.113281 33.679688 19.84375 35.617188 C 17.566406 37.550781 15.648438 39.890625 14.214844 42.480469 C 12.773438 45.070312 11.859375 47.914062 11.425781 50.820312 C 11.3125 51.546875 11.261719 52.28125 11.203125 53.015625 L 11.179688 54.121094 C 11.167969 54.488281 11.195312 54.789062 11.199219 55.128906 C 11.191406 55.40625 11.234375 55.890625 11.273438 56.339844 L 11.324219 57.011719 L 11.332031 57.09375 C 11.328125 57.042969 11.347656 57.265625 11.324219 56.992188 L 11.328125 57.023438 L 11.386719 57.433594 C 11.472656 58.167969 11.605469 58.894531 11.761719 59.609375 C 12.394531 62.46875 13.511719 65.203125 15.125 67.628906 C 18.328125 72.488281 23.394531 76.085938 29.082031 77.597656 C 30.488281 77.976562 31.988281 78.234375 33.410156 78.355469 L 33.90625 78.394531 C 34.074219 78.40625 34.214844 78.425781 34.464844 78.425781 L 35.667969 78.453125 C 36.460938 78.460938 37.246094 78.453125 38.03125 78.421875 C 41.171875 78.289062 44.238281 77.71875 47.242188 76.820312 C 50.242188 75.898438 53.160156 74.566406 56.011719 72.9375 C 58.847656 71.292969 61.640625 69.375 64.371094 67.25 C 67.128906 65.160156 69.816406 62.859375 72.582031 60.578125 C 75.332031 58.269531 78.140625 55.949219 81.058594 53.722656 C 83.984375 51.511719 87.023438 49.386719 90.246094 47.574219 C 93.453125 45.746094 96.847656 44.238281 100.347656 43.222656 " fill-opacity="1" fill-rule="nonzero"/></g><g clip-path="url(#1a3938dec6)"><path fill="#0092e6" d="M 96.496094 75.484375 C 96.496094 75.484375 96.671875 75.585938 97.011719 75.789062 C 97.347656 76 97.863281 76.289062 98.523438 76.644531 C 99.847656 77.355469 101.855469 78.304688 104.492188 79.0625 C 107.113281 79.832031 110.394531 80.371094 114.070312 80.179688 C 114.988281 80.128906 115.929688 80.035156 116.886719 79.898438 C 117.359375 79.808594 117.84375 79.714844 118.328125 79.621094 C 118.59375 79.566406 118.859375 79.515625 119.128906 79.460938 C 119.398438 79.410156 119.679688 79.363281 119.894531 79.28125 C 120.816406 78.957031 121.722656 78.777344 122.710938 78.335938 C 123.195312 78.140625 123.695312 77.964844 124.179688 77.746094 C 124.65625 77.503906 125.132812 77.261719 125.621094 77.015625 C 127.515625 75.972656 129.421875 74.769531 131.089844 73.183594 C 132.769531 71.621094 134.398438 69.894531 135.652344 67.839844 C 136.925781 65.8125 138.003906 63.613281 138.722656 61.25 C 138.875 60.65625 139.023438 60.054688 139.175781 59.453125 C 139.320312 58.851562 139.390625 58.230469 139.507812 57.621094 C 139.644531 57.011719 139.648438 56.378906 139.703125 55.753906 L 139.777344 54.816406 L 139.78125 54.757812 C 139.761719 55.25 139.773438 54.855469 139.769531 54.945312 L 139.765625 54.804688 L 139.761719 54.519531 L 139.753906 53.953125 C 139.730469 53.210938 139.742188 52.394531 139.695312 51.707031 C 139.597656 51.136719 139.511719 50.570312 139.449219 50.003906 C 139.425781 49.457031 139.203125 48.789062 139.082031 48.179688 L 138.871094 47.238281 C 138.8125 46.925781 138.671875 46.628906 138.578125 46.324219 C 137.84375 43.859375 136.601562 41.542969 135.101562 39.421875 C 132.109375 35.144531 127.613281 31.925781 122.640625 30.289062 C 122.003906 30.128906 121.375 29.949219 120.742188 29.773438 C 120.429688 29.664062 120.105469 29.617188 119.78125 29.570312 L 118.808594 29.410156 L 117.839844 29.246094 L 116.851562 29.195312 L 115.867188 29.136719 L 115.375 29.101562 C 115.4375 29.101562 115.148438 29.101562 115.5 29.097656 L 115.425781 29.097656 L 115.273438 29.101562 L 114.972656 29.113281 L 112.5625 29.183594 C 111.917969 29.257812 111.273438 29.308594 110.625 29.363281 C 109.988281 29.402344 109.253906 29.566406 108.574219 29.652344 C 107.875 29.738281 107.1875 29.898438 106.5 30.054688 C 105.8125 30.199219 105.125 30.34375 104.449219 30.554688 C 103.769531 30.761719 103.085938 30.914062 102.417969 31.15625 C 101.742188 31.378906 101.070312 31.601562 100.398438 31.824219 C 99.734375 32.085938 99.074219 32.34375 98.414062 32.601562 C 95.785156 33.691406 93.242188 34.996094 90.753906 36.378906 C 85.824219 39.222656 81.207031 42.523438 76.929688 45.835938 C 72.613281 49.179688 68.585938 52.523438 64.769531 55.566406 C 60.9375 58.605469 57.394531 61.34375 54.023438 63.625 C 50.652344 65.894531 47.449219 67.597656 44.648438 68.550781 C 41.859375 69.546875 39.535156 69.808594 37.996094 69.863281 C 37.222656 69.921875 36.628906 69.851562 36.234375 69.835938 C 35.839844 69.8125 35.636719 69.800781 35.636719 69.800781 C 35.636719 69.800781 35.835938 69.757812 36.222656 69.667969 C 36.605469 69.582031 37.175781 69.46875 37.894531 69.238281 C 39.34375 68.835938 41.375 67.996094 43.699219 66.554688 C 46.03125 65.117188 48.601562 63.003906 51.351562 60.320312 C 52.730469 58.96875 54.164062 57.507812 55.6875 55.898438 C 57.199219 54.300781 58.792969 52.621094 60.453125 50.871094 C 63.78125 47.355469 67.410156 43.496094 71.503906 39.574219 C 75.644531 35.644531 80.253906 31.660156 85.613281 28.082031 C 88.296875 26.296875 91.179688 24.652344 94.242188 23.195312 C 97.296875 21.710938 100.597656 20.53125 104.039062 19.667969 C 104.898438 19.445312 105.757812 19.226562 106.644531 19.082031 C 107.542969 18.929688 108.371094 18.726562 109.332031 18.621094 C 110.277344 18.511719 111.226562 18.398438 112.179688 18.308594 L 114.59375 18.210938 L 114.894531 18.199219 L 115.046875 18.191406 L 115.121094 18.1875 C 115.523438 18.179688 115.285156 18.1875 115.398438 18.1875 L 116.113281 18.21875 L 117.542969 18.285156 L 118.972656 18.359375 C 119.449219 18.417969 119.921875 18.496094 120.394531 18.566406 L 121.816406 18.789062 C 122.292969 18.859375 122.765625 18.9375 123.226562 19.074219 L 126.011719 19.816406 C 129.65625 21.042969 133.089844 22.851562 136.144531 25.136719 C 139.234375 27.386719 141.789062 30.277344 143.886719 33.382812 C 144.414062 34.160156 144.941406 34.9375 145.355469 35.777344 C 145.785156 36.609375 146.273438 37.410156 146.628906 38.269531 C 146.972656 39.132812 147.316406 39.996094 147.660156 40.855469 C 147.972656 41.722656 148.1875 42.621094 148.449219 43.5 C 148.5625 43.945312 148.71875 44.378906 148.792969 44.828125 L 149.03125 46.175781 C 149.171875 47.089844 149.382812 47.917969 149.421875 48.917969 C 149.496094 49.882812 149.542969 50.84375 149.585938 51.792969 C 149.574219 52.632812 149.511719 53.339844 149.480469 54.113281 L 149.402344 55.515625 L 149.214844 56.820312 C 149.082031 57.683594 148.988281 58.550781 148.753906 59.390625 C 148.535156 60.226562 148.371094 61.074219 148.101562 61.886719 C 147.816406 62.691406 147.535156 63.492188 147.253906 64.289062 C 145.96875 67.414062 144.292969 70.265625 142.300781 72.730469 C 138.3125 77.667969 133.203125 81.042969 128.136719 82.84375 C 127.496094 83.054688 126.867188 83.261719 126.242188 83.46875 C 125.609375 83.644531 124.972656 83.773438 124.351562 83.925781 C 123.140625 84.253906 121.789062 84.375 120.558594 84.539062 C 120.234375 84.585938 119.96875 84.585938 119.695312 84.59375 C 119.421875 84.601562 119.148438 84.609375 118.878906 84.613281 C 118.296875 84.628906 117.722656 84.640625 117.152344 84.652344 C 116.023438 84.625 114.925781 84.546875 113.878906 84.40625 C 109.667969 83.855469 106.222656 82.519531 103.644531 81.09375 C 101.039062 79.695312 99.304688 78.175781 98.15625 77.152344 C 97.578125 76.636719 97.175781 76.210938 96.910156 75.917969 C 96.636719 75.632812 96.496094 75.484375 96.496094 75.484375 " fill-opacity="1" fill-rule="nonzero"/></g><path fill="#5ce1e6" d="M 44.054688 73.675781 C 43.8125 73.714844 43.566406 73.730469 43.320312 73.761719 C 43.191406 73.777344 43.09375 73.785156 42.988281 73.789062 L 42.679688 73.8125 L 42.5625 73.824219 L 42.503906 73.824219 L 42.261719 73.832031 L 41.78125 73.839844 L 41.414062 73.851562 L 40.949219 73.855469 C 40.445312 73.859375 39.9375 73.835938 39.4375 73.800781 C 35.40625 73.492188 31.417969 71.894531 28.136719 69.308594 C 26.496094 68.015625 25.035156 66.484375 23.820312 64.785156 C 22.597656 63.09375 21.617188 61.234375 20.945312 59.277344 C 20.609375 58.296875 20.34375 57.296875 20.167969 56.28125 C 20.117188 56.027344 20.082031 55.773438 20.042969 55.515625 C 20.015625 55.265625 19.976562 54.992188 19.957031 54.78125 C 19.949219 54.660156 19.933594 54.578125 19.921875 54.394531 L 19.894531 53.976562 L 19.871094 53.1875 C 19.824219 51.085938 20.0625 48.976562 20.625 46.945312 C 20.90625 45.929688 21.257812 44.929688 21.683594 43.960938 C 22.121094 42.996094 22.625 42.058594 23.191406 41.15625 C 24.339844 39.363281 25.726562 37.699219 27.363281 36.300781 C 28.542969 35.261719 29.851562 34.371094 31.234375 33.617188 C 31.222656 33.617188 31.210938 33.621094 31.195312 33.625 C 30.148438 33.925781 29.125 34.304688 28.132812 34.746094 C 26.15625 35.636719 24.304688 36.792969 22.6875 38.214844 C 21.050781 39.617188 19.664062 41.28125 18.515625 43.074219 C 17.949219 43.972656 17.445312 44.910156 17.007812 45.875 C 16.582031 46.847656 16.230469 47.84375 15.945312 48.859375 C 15.386719 50.894531 15.144531 53 15.191406 55.105469 L 15.21875 55.894531 L 15.246094 56.3125 C 15.257812 56.492188 15.269531 56.578125 15.28125 56.695312 C 15.300781 56.90625 15.335938 57.183594 15.367188 57.433594 C 15.40625 57.6875 15.441406 57.941406 15.488281 58.195312 C 15.667969 59.210938 15.933594 60.214844 16.269531 61.191406 C 16.9375 63.148438 17.921875 65.007812 19.144531 66.703125 C 20.355469 68.402344 21.820312 69.929688 23.457031 71.222656 C 26.742188 73.8125 30.730469 75.40625 34.757812 75.714844 C 35.261719 75.753906 35.765625 75.773438 36.273438 75.773438 L 36.734375 75.765625 L 37.105469 75.757812 L 37.585938 75.746094 L 37.824219 75.742188 L 37.882812 75.738281 L 37.921875 75.734375 L 38 75.730469 L 38.3125 75.707031 C 38.414062 75.699219 38.515625 75.695312 38.644531 75.675781 C 38.890625 75.644531 39.132812 75.632812 39.378906 75.589844 C 39.867188 75.519531 40.351562 75.429688 40.839844 75.320312 C 42.671875 74.902344 44.488281 74.175781 46.265625 73.214844 C 46.015625 73.285156 45.765625 73.347656 45.515625 73.402344 C 45.03125 73.515625 44.542969 73.601562 44.054688 73.675781 " fill-opacity="1" fill-rule="nonzero"/><path fill="#5ce1e6" d="M 134.273438 53.363281 L 134.273438 53.144531 C 134.273438 52.851562 134.273438 52.558594 134.257812 52.261719 C 134.246094 51.96875 134.230469 51.671875 134.203125 51.378906 C 134.109375 50.195312 133.917969 49.011719 133.609375 47.847656 C 132.992188 45.523438 131.929688 43.277344 130.464844 41.304688 C 129.003906 39.328125 127.144531 37.625 125.011719 36.347656 C 122.878906 35.070312 120.484375 34.199219 117.996094 33.828125 C 116.753906 33.636719 115.488281 33.582031 114.230469 33.632812 C 112.972656 33.699219 111.71875 33.890625 110.5 34.1875 C 108.875 34.59375 107.316406 35.207031 105.855469 35.972656 C 106.148438 35.886719 106.441406 35.804688 106.738281 35.730469 C 107.960938 35.429688 109.210938 35.242188 110.472656 35.171875 C 111.730469 35.121094 112.996094 35.175781 114.238281 35.367188 C 116.722656 35.738281 119.117188 36.609375 121.253906 37.886719 C 123.382812 39.164062 125.246094 40.867188 126.703125 42.84375 C 128.171875 44.816406 129.234375 47.0625 129.847656 49.386719 C 130.15625 50.550781 130.351562 51.738281 130.445312 52.917969 C 130.46875 53.210938 130.488281 53.507812 130.496094 53.800781 C 130.511719 54.097656 130.511719 54.390625 130.511719 54.683594 L 130.511719 55.039062 L 130.507812 55.136719 L 130.496094 55.585938 C 130.480469 55.847656 130.46875 56.085938 130.445312 56.410156 C 130.425781 56.722656 130.390625 57.003906 130.363281 57.292969 C 130.324219 57.582031 130.292969 57.871094 130.246094 58.15625 C 130.160156 58.726562 130.050781 59.296875 129.917969 59.859375 C 129.652344 60.984375 129.300781 62.085938 128.871094 63.152344 C 128.007812 65.28125 126.839844 67.273438 125.40625 69.023438 C 123.96875 70.773438 122.285156 72.300781 120.433594 73.542969 C 119.773438 73.984375 119.085938 74.382812 118.386719 74.75 C 120.425781 74.125 122.390625 73.199219 124.191406 72.003906 C 126.046875 70.761719 127.730469 69.234375 129.164062 67.484375 C 130.601562 65.730469 131.769531 63.742188 132.628906 61.613281 C 133.058594 60.546875 133.410156 59.445312 133.675781 58.320312 C 133.808594 57.757812 133.917969 57.1875 134.003906 56.617188 C 134.050781 56.328125 134.085938 56.039062 134.121094 55.753906 C 134.152344 55.464844 134.183594 55.183594 134.203125 54.871094 C 134.230469 54.542969 134.238281 54.308594 134.253906 54.046875 L 134.269531 53.59375 L 134.273438 53.5 L 134.273438 53.363281 " fill-opacity="1" fill-rule="nonzero"/><g clip-path="url(#c3c0dca9b7)"><path fill="#061c44" d="M 70.898438 18.765625 L 71.128906 18.765625 L 71.730469 19.089844 C 72.128906 19.304688 72.550781 19.523438 72.988281 19.746094 C 73.425781 19.96875 73.710938 20.113281 73.839844 20.183594 C 73.972656 20.253906 74.050781 20.296875 74.082031 20.3125 C 74.113281 20.328125 74.359375 20.449219 74.820312 20.679688 C 75.28125 20.910156 75.71875 21.117188 76.136719 21.300781 C 76.550781 21.488281 76.8125 21.609375 76.921875 21.671875 C 77.027344 21.734375 77.203125 21.816406 77.449219 21.925781 C 77.695312 22.03125 77.882812 22.117188 78.003906 22.179688 C 78.128906 22.242188 78.394531 22.363281 78.8125 22.546875 C 79.226562 22.734375 79.710938 22.941406 80.265625 23.171875 C 80.820312 23.402344 81.457031 23.65625 82.179688 23.933594 C 82.902344 24.210938 83.285156 24.355469 83.332031 24.371094 C 83.378906 24.386719 83.65625 24.476562 84.164062 24.648438 C 84.671875 24.816406 85.0625 24.949219 85.339844 25.039062 C 85.617188 25.132812 85.761719 25.179688 85.777344 25.179688 C 85.792969 25.179688 86.261719 25.316406 87.183594 25.59375 C 88.109375 25.871094 88.683594 26.039062 88.914062 26.101562 C 89.144531 26.164062 89.585938 26.261719 90.230469 26.402344 C 90.875 26.539062 91.4375 26.65625 91.914062 26.746094 C 92.390625 26.839844 93.3125 27.007812 94.683594 27.253906 C 96.050781 27.5 96.890625 27.644531 97.195312 27.691406 C 97.503906 27.738281 97.859375 27.792969 98.257812 27.855469 C 98.65625 27.914062 99.058594 27.976562 99.457031 28.039062 C 99.855469 28.101562 100.199219 28.171875 100.484375 28.257812 L 100.910156 28.382812 L 100.839844 31.40625 C 100.796875 33.421875 100.679688 36.257812 100.496094 39.917969 C 100.3125 43.578125 100.1875 45.832031 100.125 46.675781 C 100.066406 47.523438 99.964844 48.414062 99.828125 49.351562 C 99.6875 50.289062 99.582031 50.992188 99.503906 51.453125 C 99.425781 51.914062 99.328125 52.421875 99.203125 52.972656 C 99.082031 53.527344 98.980469 53.988281 98.902344 54.359375 C 98.828125 54.726562 98.734375 55.136719 98.625 55.582031 C 98.519531 56.027344 98.402344 56.488281 98.28125 56.964844 C 98.15625 57.441406 98.003906 58.019531 97.820312 58.695312 C 97.636719 59.371094 97.535156 59.75 97.519531 59.824219 C 97.503906 59.902344 97.375 60.332031 97.128906 61.117188 C 96.882812 61.902344 96.574219 62.777344 96.203125 63.746094 C 95.835938 64.714844 95.621094 65.261719 95.558594 65.386719 C 95.496094 65.507812 95.398438 65.753906 95.257812 66.125 C 95.121094 66.492188 94.828125 67.144531 94.382812 68.082031 C 93.9375 69.023438 93.621094 69.660156 93.4375 70 C 93.253906 70.335938 92.972656 70.851562 92.59375 71.542969 C 92.21875 72.234375 92.011719 72.605469 91.972656 72.652344 C 91.933594 72.699219 91.792969 72.929688 91.546875 73.34375 C 91.300781 73.757812 91.0625 74.140625 90.839844 74.484375 C 90.617188 74.832031 90.441406 75.101562 90.3125 75.292969 C 90.179688 75.484375 90.003906 75.753906 89.78125 76.101562 C 89.558594 76.445312 89.363281 76.730469 89.203125 76.953125 C 89.042969 77.175781 88.878906 77.398438 88.71875 77.621094 C 88.558594 77.84375 88.425781 78.03125 88.328125 78.175781 C 88.226562 78.320312 88.140625 78.445312 88.074219 78.546875 C 88.003906 78.644531 87.882812 78.8125 87.703125 79.050781 C 87.527344 79.289062 87.359375 79.523438 87.195312 79.746094 C 87.035156 79.96875 86.703125 80.359375 86.203125 80.921875 C 85.703125 81.480469 85.421875 81.804688 85.351562 81.890625 C 85.28125 81.972656 85.21875 82.046875 85.15625 82.109375 C 85.09375 82.171875 84.878906 82.402344 84.507812 82.800781 C 84.140625 83.199219 83.742188 83.617188 83.308594 84.046875 C 82.878906 84.476562 82.597656 84.75 82.46875 84.867188 C 82.335938 84.980469 82.027344 85.261719 81.535156 85.707031 C 81.042969 86.152344 80.644531 86.511719 80.34375 86.78125 C 80.046875 87.050781 79.769531 87.296875 79.515625 87.519531 C 79.261719 87.742188 78.90625 88.050781 78.453125 88.441406 C 78 88.832031 77.675781 89.101562 77.484375 89.25 C 77.292969 89.394531 77.039062 89.59375 76.722656 89.847656 C 76.410156 90.101562 76 90.378906 75.5 90.679688 C 75 90.976562 74.664062 91.1875 74.488281 91.300781 C 74.308594 91.417969 74.082031 91.5625 73.804688 91.738281 C 73.527344 91.917969 73.375 92.023438 73.34375 92.0625 C 73.3125 92.101562 73.042969 92.25 72.539062 92.511719 C 72.03125 92.773438 71.613281 92.964844 71.292969 93.089844 L 70.808594 93.273438 L 70.578125 93.203125 C 70.421875 93.160156 70.191406 93.058594 69.882812 92.90625 C 69.578125 92.75 69.261719 92.589844 68.9375 92.421875 C 68.617188 92.25 68.414062 92.136719 68.339844 92.074219 C 68.261719 92.011719 68.117188 91.90625 67.902344 91.75 C 67.683594 91.597656 67.34375 91.378906 66.875 91.09375 C 66.40625 90.808594 66.089844 90.617188 65.929688 90.515625 C 65.765625 90.417969 65.558594 90.277344 65.304688 90.101562 C 65.050781 89.925781 64.714844 89.65625 64.289062 89.292969 C 63.867188 88.933594 63.589844 88.695312 63.460938 88.578125 C 63.328125 88.464844 63.058594 88.234375 62.652344 87.886719 C 62.246094 87.542969 61.976562 87.3125 61.84375 87.195312 C 61.714844 87.078125 61.527344 86.90625 61.28125 86.675781 C 61.035156 86.445312 60.671875 86.121094 60.195312 85.707031 C 59.71875 85.292969 59.449219 85.054688 59.390625 84.992188 C 59.328125 84.929688 59.097656 84.714844 58.695312 84.347656 C 58.296875 83.976562 58.039062 83.726562 57.925781 83.597656 C 57.808594 83.464844 57.53125 83.167969 57.09375 82.695312 C 56.65625 82.226562 56.300781 81.84375 56.03125 81.542969 C 55.761719 81.242188 55.464844 80.898438 55.132812 80.503906 C 54.800781 80.113281 54.546875 79.789062 54.371094 79.535156 C 54.195312 79.28125 54.039062 79.074219 53.910156 78.914062 C 53.78125 78.753906 53.683594 78.617188 53.621094 78.511719 C 53.558594 78.402344 53.464844 78.269531 53.332031 78.105469 C 53.203125 77.945312 53.070312 77.769531 52.941406 77.574219 C 52.8125 77.382812 52.695312 77.207031 52.59375 77.046875 C 52.496094 76.882812 52.398438 76.75 52.308594 76.640625 C 52.214844 76.535156 52.125 76.414062 52.042969 76.285156 C 51.957031 76.152344 51.882812 76.035156 51.824219 75.925781 C 51.761719 75.820312 51.660156 75.664062 51.523438 75.464844 C 51.382812 75.265625 51.203125 74.992188 50.980469 74.648438 C 50.757812 74.300781 50.597656 74.046875 50.496094 73.886719 C 50.394531 73.722656 50.289062 73.539062 50.171875 73.332031 C 50.058594 73.125 49.949219 72.941406 49.851562 72.777344 C 49.75 72.617188 49.640625 72.421875 49.515625 72.191406 C 49.394531 71.960938 49.167969 71.566406 48.847656 71.011719 C 48.523438 70.460938 48.339844 70.144531 48.292969 70.066406 C 48.246094 69.992188 48.148438 69.789062 47.992188 69.46875 C 47.839844 69.144531 47.671875 68.804688 47.484375 68.453125 C 47.300781 68.097656 47.09375 67.644531 46.863281 67.09375 C 46.632812 66.539062 46.425781 66.03125 46.242188 65.570312 C 46.054688 65.109375 45.863281 64.601562 45.664062 64.046875 C 45.464844 63.492188 45.292969 63.039062 45.15625 62.6875 C 45.019531 62.332031 44.878906 61.925781 44.742188 61.464844 C 44.601562 61.003906 44.476562 60.613281 44.359375 60.296875 C 44.246094 59.984375 44.191406 59.8125 44.199219 59.792969 C 44.207031 59.769531 44.148438 59.542969 44.027344 59.109375 C 43.902344 58.679688 43.726562 58.003906 43.496094 57.082031 C 43.265625 56.15625 43.117188 55.574219 43.058594 55.328125 C 42.996094 55.082031 42.894531 54.636719 42.757812 53.988281 C 42.617188 53.34375 42.496094 52.765625 42.386719 52.257812 C 42.28125 51.753906 42.171875 51.160156 42.066406 50.484375 C 41.957031 49.804688 41.871094 49.222656 41.8125 48.730469 C 41.75 48.238281 41.671875 47.277344 41.582031 45.847656 C 41.488281 44.417969 41.417969 43.253906 41.371094 42.363281 C 41.328125 41.472656 41.28125 40.609375 41.234375 39.78125 C 41.1875 38.949219 41.113281 37.402344 41.003906 35.144531 C 40.894531 32.882812 40.84375 31.199219 40.84375 30.089844 L 40.84375 28.429688 L 40.992188 28.351562 C 41.09375 28.296875 41.496094 28.214844 42.203125 28.109375 C 42.910156 28 43.28125 27.9375 43.3125 27.921875 C 43.339844 27.90625 43.59375 27.863281 44.070312 27.785156 C 44.546875 27.707031 45.078125 27.625 45.664062 27.53125 C 46.246094 27.4375 46.933594 27.324219 47.714844 27.183594 C 48.5 27.046875 49.40625 26.871094 50.4375 26.65625 C 51.46875 26.4375 52.324219 26.246094 53 26.078125 C 53.675781 25.910156 54.484375 25.679688 55.421875 25.386719 C 56.359375 25.09375 56.929688 24.917969 57.128906 24.855469 C 57.328125 24.792969 57.90625 24.585938 58.859375 24.230469 C 59.8125 23.878906 60.582031 23.578125 61.164062 23.332031 C 61.75 23.085938 62.171875 22.910156 62.433594 22.800781 C 62.695312 22.695312 63.292969 22.421875 64.222656 21.984375 C 65.152344 21.542969 65.675781 21.300781 65.789062 21.246094 C 65.90625 21.191406 66.246094 21.027344 66.816406 20.75 C 67.386719 20.472656 67.808594 20.265625 68.085938 20.125 C 68.363281 19.988281 68.730469 19.804688 69.191406 19.574219 C 69.652344 19.34375 69.945312 19.195312 70.070312 19.132812 C 70.191406 19.074219 70.300781 19.011719 70.390625 18.949219 C 70.484375 18.886719 70.554688 18.84375 70.601562 18.8125 L 70.667969 18.765625 Z M 70.898438 18.765625 " fill-opacity="1" fill-rule="evenodd"/></g><g clip-path="url(#00329909be)"><path stroke-linecap="butt" transform="matrix(0.0461352, 0, 0, 0.0461352, 40.773212, 18.69607)" fill="none" stroke-linejoin="miter" d="M 652.976775 1.50763 L 657.97228 1.50763 L 671.011397 8.535206 C 679.647695 13.192033 688.792011 17.93353 698.275005 22.759697 C 707.757999 27.585863 713.938879 30.718638 716.732976 32.242691 C 719.611742 33.766743 721.305134 34.698109 721.98249 35.036787 C 722.659847 35.375466 727.994031 38.000223 737.985043 42.995729 C 747.976054 47.991235 757.459049 52.478723 766.518695 56.458194 C 775.493671 60.522334 781.166534 63.147091 783.537282 64.501805 C 785.823361 65.856518 789.633493 67.634579 794.967677 70.005328 C 800.301861 72.291407 804.366001 74.154138 806.990759 75.508851 C 809.700186 76.863565 815.457718 79.488322 824.517364 83.467793 C 833.49234 87.531933 843.991369 92.019421 856.014451 97.014927 C 868.037533 102.010433 881.838676 107.513956 897.50255 113.525497 C 913.166424 119.537038 921.464044 122.669813 922.480079 123.008491 C 923.496114 123.34717 929.507655 125.29457 940.514702 129.020032 C 951.521749 132.660825 959.988708 135.539591 966.000249 137.486991 C 972.01179 139.519061 975.144564 140.535096 975.483243 140.535096 C 975.821921 140.535096 985.982272 143.498532 1005.964295 149.510073 C 1026.030988 155.521614 1038.477418 159.162406 1043.472923 160.51712 C 1048.468429 161.871833 1058.036093 163.988573 1072.006575 167.036678 C 1085.977058 170.000114 1098.169479 172.540201 1108.499169 174.487602 C 1118.828858 176.519672 1138.810882 180.160465 1168.529908 185.494649 C 1198.164264 190.828833 1216.368226 193.961608 1222.972454 194.977643 C 1229.661352 195.993678 1237.366284 197.179052 1246.002583 198.533766 C 1254.638881 199.803809 1263.359849 201.158523 1271.996147 202.513236 C 1280.632445 203.86795 1288.083369 205.392002 1294.264249 207.254733 L 1303.493234 209.96416 L 1301.969182 275.498423 C 1301.037816 319.187931 1298.497728 380.658054 1294.518258 459.993459 C 1290.538787 539.328865 1287.82936 588.183219 1286.474647 606.47185 C 1285.204603 624.845151 1283.003193 644.149817 1280.039758 664.470519 C 1276.991653 684.791221 1274.705574 700.031747 1273.012182 710.022758 C 1271.31879 720.01377 1269.20205 731.020817 1266.492623 742.959229 C 1263.867866 754.982311 1261.666457 764.973322 1259.973065 773.016933 C 1258.364343 780.975875 1256.332273 789.866182 1253.961524 799.518515 C 1251.675445 809.170848 1249.135357 819.16186 1246.5106 829.49155 C 1243.801173 839.82124 1240.499059 852.352339 1236.519589 867.000178 C 1232.540118 881.648017 1230.338708 889.860968 1230.00003 891.46969 C 1229.661352 893.163082 1226.867255 902.476736 1221.533071 919.495324 C 1216.198887 936.513912 1209.509989 955.4799 1201.466378 976.477958 C 1193.507437 997.476016 1188.850609 1009.329759 1187.495896 1012.039186 C 1186.141183 1014.663943 1184.024443 1019.998127 1180.976338 1028.041738 C 1178.012902 1036.00068 1171.662683 1050.140501 1162.010349 1070.461203 C 1152.358016 1090.866574 1145.499779 1104.667717 1141.520309 1112.033972 C 1137.540838 1119.315556 1131.444627 1130.491942 1123.231677 1145.47846 C 1115.103397 1160.464977 1110.615908 1168.508588 1109.769212 1169.524623 C 1108.922516 1170.540658 1105.874411 1175.536164 1100.540227 1184.511141 C 1095.206043 1193.486117 1090.041198 1201.783737 1085.215031 1209.234661 C 1080.388865 1216.770254 1076.578733 1222.612456 1073.784637 1226.761266 C 1070.905871 1230.910076 1067.095739 1236.752278 1062.269572 1244.287871 C 1057.443406 1251.738795 1053.209926 1257.919675 1049.738473 1262.745842 C 1046.26702 1267.572008 1042.710897 1272.398175 1039.239444 1277.224342 C 1035.767991 1282.050508 1032.889225 1286.114649 1030.772485 1289.247423 C 1028.571076 1292.380198 1026.708345 1295.089625 1025.268962 1297.291034 C 1023.744909 1299.407774 1021.120152 1303.048566 1017.225351 1308.213411 C 1013.415219 1313.378256 1009.774427 1318.458432 1006.218304 1323.284598 C 1002.746851 1328.110765 995.549936 1336.577724 984.712228 1348.770145 C 973.87452 1360.877896 967.77831 1367.905472 966.254257 1369.768203 C 964.730205 1371.546265 963.375491 1373.154987 962.020778 1374.5097 C 960.666064 1375.864414 956.009237 1380.85992 947.965626 1389.496218 C 940.006685 1398.132516 931.370386 1407.192162 921.972062 1416.505817 C 912.658407 1425.819472 906.562196 1431.746343 903.7681 1434.286431 C 900.889334 1436.741849 894.200436 1442.83806 883.532068 1452.490393 C 872.8637 1462.142726 864.227401 1469.932328 857.707843 1475.77453 C 851.272954 1481.616732 845.261413 1486.950916 839.75789 1491.777083 C 834.254367 1496.603249 826.549434 1503.292147 816.727762 1511.759106 C 806.906089 1520.226065 799.878513 1526.068266 795.729703 1529.285711 C 791.580893 1532.418486 786.07737 1536.736635 779.219133 1542.240158 C 772.445566 1547.743681 763.555259 1553.755222 752.717552 1560.274781 C 741.879844 1566.70967 734.598259 1571.281827 730.788128 1573.737246 C 726.893327 1576.277333 721.98249 1579.410108 715.970949 1583.22024 C 709.959409 1587.115041 706.657295 1589.40112 705.979938 1590.247816 C 705.302581 1591.094512 699.460379 1594.311956 688.538002 1599.984818 C 677.530956 1605.657681 668.47131 1609.806491 661.528403 1612.515918 L 651.029374 1616.495389 L 646.033868 1614.971336 C 642.647085 1614.03997 637.651579 1611.838561 630.962681 1608.536447 C 624.358453 1605.149663 617.500216 1601.67821 610.47264 1598.037418 C 603.529734 1594.311956 599.126915 1591.856538 597.518193 1590.501824 C 595.824801 1589.147111 592.692027 1586.861032 588.035199 1583.474248 C 583.293702 1580.172134 575.927448 1575.430637 565.767097 1569.249757 C 555.606746 1563.068877 548.748509 1558.920067 545.277056 1556.718658 C 541.720933 1554.601918 537.233445 1551.553813 531.729922 1547.743681 C 526.226398 1543.93355 518.944814 1538.091348 509.715828 1530.217076 C 500.571513 1522.427474 494.559972 1517.262629 491.765875 1514.722541 C 488.887109 1512.267123 483.044908 1507.271617 474.23927 1499.736024 C 465.433633 1492.2851 459.591431 1487.289594 456.712665 1484.749507 C 453.918569 1482.209419 449.854428 1478.483957 444.520244 1473.488451 C 439.18606 1468.492945 431.311788 1461.465369 420.982098 1452.490393 C 410.652408 1443.515416 404.810206 1438.350571 403.540163 1436.995858 C 402.185449 1435.641144 397.189943 1430.984317 388.468976 1423.025375 C 379.832677 1414.981764 374.244484 1409.562911 371.789066 1406.768814 C 369.248979 1403.890048 363.237438 1397.455159 353.754444 1387.210139 C 344.27145 1377.049788 336.566517 1368.752168 330.724315 1362.23261 C 324.882113 1355.713051 318.447225 1348.262128 311.25031 1339.710499 C 304.053394 1331.24354 298.549871 1324.215964 294.739739 1318.712441 C 290.929608 1313.208917 287.542824 1308.721429 284.748728 1305.249976 C 281.954631 1301.778523 279.837892 1298.815087 278.483178 1296.529008 C 277.128465 1294.15826 275.096395 1291.279493 272.217629 1287.723371 C 269.423532 1284.251918 266.544766 1280.441786 263.75067 1276.208306 C 260.956573 1272.059497 258.416485 1268.249365 256.215076 1264.777912 C 254.098336 1261.221789 251.981597 1258.343023 250.034196 1255.972274 C 248.002126 1253.686196 246.054725 1251.061438 244.276664 1248.267342 C 242.413933 1245.388576 240.805211 1242.848488 239.535167 1240.47774 C 238.180453 1238.191661 235.979044 1234.804877 233.015608 1230.486728 C 229.967503 1226.168579 226.072702 1220.241708 221.246535 1212.790784 C 216.420369 1205.25519 212.948916 1199.751667 210.747506 1196.280214 C 208.546097 1192.724091 206.260018 1188.74462 203.71993 1184.257132 C 201.264512 1179.769644 198.893764 1175.790173 196.777024 1172.23405 C 194.575615 1168.762597 192.204866 1164.529117 189.495439 1159.533612 C 186.870682 1154.538106 181.959846 1145.986477 175.016939 1133.963395 C 167.989363 1122.024983 164.009893 1115.166746 162.993857 1113.473355 C 161.977822 1111.864632 159.861083 1107.461814 156.474299 1100.518907 C 153.172185 1093.491331 149.531393 1086.125077 145.467252 1078.504814 C 141.487782 1070.799881 137.000293 1060.978209 132.004788 1049.039797 C 127.009282 1037.016715 122.521793 1026.009668 118.542323 1016.018657 C 114.478182 1006.027645 110.329373 995.020598 106.011223 982.997516 C 101.693074 970.974435 97.967612 961.152762 95.004177 953.532499 C 92.040741 945.827566 88.992636 937.021929 86.0292 927.030918 C 82.981095 917.039906 80.271668 908.572947 77.73158 901.71471 C 75.276162 894.941143 74.090788 891.215681 74.260127 890.792333 C 74.429466 890.284315 73.159423 885.373479 70.534665 875.975155 C 67.825238 866.6615 64.015107 852.013661 59.019601 832.031638 C 54.024095 811.964945 50.806651 799.349176 49.536607 794.014992 C 48.181894 788.680808 45.980484 779.028474 43.017049 764.973322 C 39.968943 751.00284 37.344186 738.471741 34.973437 727.464694 C 32.687359 716.542317 30.31661 703.672539 28.030531 689.0247 C 25.659783 674.292191 23.797052 661.676423 22.527008 651.008054 C 21.172294 640.339686 19.478903 619.510967 17.531502 588.521897 C 15.499432 557.532827 13.975379 532.301289 12.959344 512.996623 C 12.027979 493.691956 11.011944 474.979977 9.995908 457.030024 C 8.979873 438.995401 7.371151 405.466243 5.000403 356.52722 C 2.629654 307.503528 1.528949 271.010935 1.528949 246.964771 L 1.528949 210.980195 L 4.746394 209.286803 C 6.947803 208.101429 15.668771 206.323368 30.993967 204.037289 C 46.319163 201.66654 54.362774 200.311827 55.04013 199.973149 C 55.632817 199.63447 61.136341 198.703105 71.466031 197.009713 C 81.795721 195.316321 93.310785 193.53826 106.011223 191.50619 C 118.626992 189.474119 133.52884 187.018701 150.462758 183.970596 C 167.481346 181.00716 187.124691 177.197029 209.477462 172.540201 C 231.830234 167.798704 250.372874 163.649894 265.020713 160.009102 C 279.668552 156.36831 297.195158 151.372804 317.515859 145.022585 C 337.836561 138.672365 350.198321 134.862234 354.51647 133.50752 C 358.834619 132.152807 371.365718 127.665319 392.025098 119.960386 C 412.684478 112.340123 429.364387 105.820565 441.980156 100.48638 C 454.680595 95.152196 463.824911 91.342065 469.497773 88.971316 C 475.170636 86.685237 488.125083 80.758366 508.276445 71.275372 C 528.427808 61.707708 539.773533 56.458194 542.228951 55.272819 C 544.769039 54.087445 552.135293 50.531322 564.497053 44.519781 C 576.858813 38.508241 586.003129 34.020752 592.01467 30.972647 C 598.026211 28.009211 605.985152 24.029741 615.976164 19.034235 C 625.967175 14.038729 632.317395 10.821285 635.026821 9.466571 C 637.651579 8.196527 640.022327 6.841814 641.969728 5.4871 C 644.001798 4.132387 645.525851 3.201022 646.541886 2.523665 L 647.981269 1.50763 Z M 652.976775 1.50763 " stroke="#000000" stroke-width="2" stroke-opacity="1" stroke-miterlimit="4"/></g><g clip-path="url(#6d18e50d65)"><path fill="#5ce1e6" d="M 70.894531 25.296875 L 71.082031 25.296875 L 71.578125 25.5625 C 71.90625 25.738281 72.253906 25.921875 72.613281 26.105469 C 72.976562 26.289062 73.210938 26.410156 73.320312 26.464844 C 73.425781 26.523438 73.492188 26.558594 73.519531 26.570312 C 73.542969 26.582031 73.746094 26.683594 74.128906 26.875 C 74.507812 27.066406 74.871094 27.238281 75.210938 27.390625 C 75.554688 27.539062 75.769531 27.640625 75.859375 27.691406 C 75.945312 27.742188 76.09375 27.8125 76.296875 27.902344 C 76.5 27.992188 76.652344 28.0625 76.753906 28.113281 C 76.855469 28.164062 77.074219 28.265625 77.417969 28.414062 C 77.761719 28.566406 78.160156 28.738281 78.617188 28.929688 C 79.074219 29.121094 79.601562 29.328125 80.195312 29.558594 C 80.792969 29.785156 81.109375 29.90625 81.148438 29.917969 C 81.183594 29.929688 81.414062 30.007812 81.832031 30.148438 C 82.25 30.285156 82.574219 30.394531 82.800781 30.46875 C 83.03125 30.546875 83.152344 30.585938 83.164062 30.585938 C 83.175781 30.585938 83.5625 30.699219 84.324219 30.925781 C 85.085938 31.15625 85.558594 31.292969 85.75 31.34375 C 85.941406 31.394531 86.300781 31.480469 86.835938 31.59375 C 87.367188 31.707031 87.832031 31.800781 88.222656 31.878906 C 88.617188 31.953125 89.378906 32.09375 90.507812 32.296875 C 91.636719 32.5 92.328125 32.621094 92.578125 32.65625 C 92.832031 32.695312 93.125 32.742188 93.453125 32.792969 C 93.785156 32.84375 94.113281 32.894531 94.445312 32.945312 C 94.773438 32.996094 95.054688 33.054688 95.289062 33.125 L 95.640625 33.230469 L 95.585938 35.722656 C 95.546875 37.382812 95.453125 39.722656 95.300781 42.742188 C 95.148438 45.757812 95.046875 47.617188 94.996094 48.3125 C 94.945312 49.011719 94.863281 49.746094 94.75 50.519531 C 94.632812 51.292969 94.546875 51.871094 94.480469 52.253906 C 94.417969 52.632812 94.335938 53.050781 94.234375 53.507812 C 94.132812 53.964844 94.050781 54.34375 93.988281 54.648438 C 93.925781 54.953125 93.847656 55.289062 93.757812 55.65625 C 93.671875 56.023438 93.574219 56.40625 93.472656 56.796875 C 93.371094 57.191406 93.246094 57.667969 93.09375 58.226562 C 92.941406 58.785156 92.859375 59.09375 92.847656 59.15625 C 92.832031 59.222656 92.726562 59.574219 92.523438 60.222656 C 92.320312 60.871094 92.066406 61.59375 91.761719 62.390625 C 91.457031 63.191406 91.28125 63.640625 91.230469 63.742188 C 91.179688 63.84375 91.097656 64.046875 90.980469 64.351562 C 90.867188 64.65625 90.625 65.195312 90.257812 65.96875 C 89.890625 66.742188 89.632812 67.269531 89.480469 67.546875 C 89.328125 67.824219 89.09375 68.25 88.785156 68.820312 C 88.472656 69.390625 88.304688 69.695312 88.269531 69.734375 C 88.238281 69.773438 88.121094 69.960938 87.917969 70.304688 C 87.714844 70.648438 87.523438 70.960938 87.339844 71.246094 C 87.15625 71.53125 87.007812 71.753906 86.902344 71.914062 C 86.792969 72.070312 86.648438 72.292969 86.464844 72.578125 C 86.28125 72.863281 86.121094 73.097656 85.988281 73.28125 C 85.855469 73.464844 85.722656 73.648438 85.589844 73.832031 C 85.457031 74.019531 85.347656 74.167969 85.265625 74.289062 C 85.183594 74.410156 85.113281 74.511719 85.054688 74.59375 C 85 74.675781 84.898438 74.816406 84.75 75.011719 C 84.605469 75.210938 84.464844 75.398438 84.332031 75.582031 C 84.199219 75.769531 83.925781 76.089844 83.515625 76.554688 C 83.101562 77.015625 82.867188 77.285156 82.8125 77.351562 C 82.753906 77.421875 82.699219 77.484375 82.648438 77.535156 C 82.597656 77.585938 82.421875 77.773438 82.117188 78.105469 C 81.8125 78.433594 81.484375 78.777344 81.128906 79.132812 C 80.773438 79.488281 80.542969 79.710938 80.433594 79.808594 C 80.324219 79.902344 80.070312 80.132812 79.664062 80.5 C 79.257812 80.871094 78.929688 81.164062 78.683594 81.386719 C 78.4375 81.609375 78.207031 81.8125 78 81.996094 C 77.789062 82.179688 77.496094 82.433594 77.125 82.753906 C 76.75 83.078125 76.484375 83.300781 76.324219 83.421875 C 76.164062 83.542969 75.957031 83.707031 75.695312 83.917969 C 75.4375 84.125 75.101562 84.355469 74.6875 84.601562 C 74.277344 84.847656 73.996094 85.019531 73.851562 85.113281 C 73.707031 85.210938 73.519531 85.332031 73.289062 85.476562 C 73.0625 85.621094 72.933594 85.710938 72.910156 85.742188 C 72.882812 85.773438 72.664062 85.898438 72.242188 86.113281 C 71.824219 86.328125 71.484375 86.488281 71.214844 86.589844 L 70.816406 86.742188 L 70.628906 86.683594 C 70.5 86.644531 70.308594 86.5625 70.054688 86.4375 C 69.800781 86.308594 69.542969 86.175781 69.277344 86.039062 C 69.011719 85.898438 68.84375 85.800781 68.78125 85.75 C 68.71875 85.699219 68.597656 85.613281 68.421875 85.484375 C 68.242188 85.359375 67.960938 85.179688 67.574219 84.945312 C 67.1875 84.707031 66.925781 84.550781 66.792969 84.46875 C 66.660156 84.386719 66.488281 84.269531 66.28125 84.125 C 66.070312 83.980469 65.792969 83.757812 65.441406 83.460938 C 65.09375 83.160156 64.867188 82.964844 64.757812 82.871094 C 64.652344 82.773438 64.429688 82.585938 64.09375 82.300781 C 63.757812 82.015625 63.535156 81.824219 63.425781 81.726562 C 63.320312 81.632812 63.164062 81.492188 62.960938 81.300781 C 62.757812 81.109375 62.460938 80.84375 62.066406 80.5 C 61.671875 80.160156 61.453125 79.960938 61.402344 79.910156 C 61.351562 79.859375 61.160156 79.683594 60.832031 79.378906 C 60.5 79.074219 60.289062 78.867188 60.191406 78.761719 C 60.097656 78.652344 59.871094 78.40625 59.507812 78.019531 C 59.148438 77.632812 58.855469 77.316406 58.632812 77.066406 C 58.410156 76.820312 58.164062 76.535156 57.890625 76.210938 C 57.617188 75.886719 57.410156 75.621094 57.261719 75.414062 C 57.117188 75.203125 56.992188 75.03125 56.882812 74.898438 C 56.773438 74.765625 56.695312 74.65625 56.644531 74.566406 C 56.59375 74.476562 56.515625 74.367188 56.40625 74.234375 C 56.300781 74.101562 56.191406 73.953125 56.082031 73.796875 C 55.976562 73.636719 55.882812 73.492188 55.796875 73.359375 C 55.714844 73.226562 55.636719 73.113281 55.5625 73.023438 C 55.484375 72.9375 55.410156 72.839844 55.34375 72.730469 C 55.273438 72.621094 55.210938 72.523438 55.160156 72.4375 C 55.109375 72.347656 55.027344 72.21875 54.914062 72.054688 C 54.800781 71.890625 54.652344 71.664062 54.46875 71.378906 C 54.28125 71.09375 54.148438 70.886719 54.066406 70.753906 C 53.984375 70.617188 53.894531 70.464844 53.800781 70.296875 C 53.707031 70.125 53.617188 69.972656 53.535156 69.839844 C 53.453125 69.707031 53.359375 69.542969 53.257812 69.355469 C 53.15625 69.164062 52.972656 68.839844 52.707031 68.382812 C 52.441406 67.925781 52.289062 67.667969 52.25 67.605469 C 52.210938 67.539062 52.128906 67.375 52.003906 67.109375 C 51.875 66.84375 51.738281 66.5625 51.585938 66.273438 C 51.433594 65.980469 51.261719 65.605469 51.070312 65.148438 C 50.882812 64.691406 50.710938 64.273438 50.558594 63.894531 C 50.40625 63.515625 50.246094 63.09375 50.082031 62.640625 C 49.917969 62.183594 49.777344 61.808594 49.664062 61.515625 C 49.550781 61.226562 49.433594 60.886719 49.320312 60.507812 C 49.207031 60.128906 49.101562 59.808594 49.007812 59.546875 C 48.910156 59.289062 48.867188 59.148438 48.875 59.128906 C 48.878906 59.109375 48.832031 58.921875 48.730469 58.566406 C 48.628906 58.210938 48.484375 57.65625 48.292969 56.894531 C 48.105469 56.132812 47.984375 55.652344 47.933594 55.449219 C 47.882812 55.246094 47.800781 54.878906 47.683594 54.34375 C 47.570312 53.8125 47.46875 53.335938 47.378906 52.917969 C 47.292969 52.5 47.203125 52.011719 47.113281 51.453125 C 47.027344 50.894531 46.957031 50.414062 46.90625 50.007812 C 46.855469 49.601562 46.789062 48.808594 46.714844 47.628906 C 46.640625 46.449219 46.582031 45.492188 46.542969 44.757812 C 46.503906 44.019531 46.46875 43.3125 46.429688 42.625 C 46.390625 41.941406 46.328125 40.667969 46.238281 38.800781 C 46.152344 36.9375 46.105469 35.550781 46.105469 34.636719 L 46.105469 33.265625 L 46.230469 33.199219 C 46.3125 33.15625 46.644531 33.089844 47.230469 33 C 47.8125 32.910156 48.117188 32.859375 48.140625 32.847656 C 48.167969 32.835938 48.375 32.796875 48.769531 32.734375 C 49.164062 32.671875 49.601562 32.601562 50.082031 32.523438 C 50.5625 32.449219 51.128906 32.355469 51.773438 32.238281 C 52.421875 32.125 53.171875 31.980469 54.019531 31.800781 C 54.871094 31.625 55.574219 31.464844 56.132812 31.328125 C 56.6875 31.1875 57.355469 30.996094 58.128906 30.753906 C 58.902344 30.515625 59.371094 30.367188 59.535156 30.316406 C 59.703125 30.265625 60.175781 30.097656 60.964844 29.804688 C 61.75 29.511719 62.382812 29.265625 62.867188 29.0625 C 63.347656 28.859375 63.695312 28.714844 63.910156 28.625 C 64.128906 28.535156 64.617188 28.3125 65.386719 27.949219 C 66.152344 27.589844 66.585938 27.386719 66.679688 27.339844 C 66.773438 27.296875 67.058594 27.160156 67.527344 26.933594 C 67.996094 26.703125 68.34375 26.53125 68.574219 26.417969 C 68.800781 26.304688 69.105469 26.152344 69.484375 25.960938 C 69.867188 25.773438 70.105469 25.652344 70.207031 25.601562 C 70.308594 25.550781 70.398438 25.5 70.476562 25.449219 C 70.550781 25.398438 70.609375 25.359375 70.644531 25.335938 L 70.703125 25.296875 Z M 70.894531 25.296875 " fill-opacity="1" fill-rule="evenodd"/></g><g clip-path="url(#90ce585f9b)"><path stroke-linecap="butt" transform="matrix(0.0380464, 0, 0, 0.0380464, 46.049078, 25.23907)" fill="none" stroke-linejoin="miter" d="M 653.030385 1.519337 L 657.958579 1.519337 L 670.997757 8.500945 C 679.622095 13.121126 688.759787 17.946649 698.205491 22.772171 C 707.753866 27.597694 713.914107 30.780486 716.788887 32.217875 C 719.560996 33.757936 721.306397 34.681972 722.025092 34.989984 C 722.641116 35.297996 727.979993 37.967434 738.041721 42.998298 C 748.000778 48.029162 757.549153 52.546673 766.481503 56.55083 C 775.516525 60.452316 781.163413 63.121755 783.524839 64.456474 C 785.783594 65.791193 789.68508 67.639265 795.023957 70.000691 C 800.362833 72.362117 804.36699 74.21019 807.036428 75.544909 C 809.705866 76.879628 815.455425 79.549066 824.490446 83.450552 C 833.525467 87.454709 843.997878 91.97222 856.01035 97.003084 C 868.022821 102.033948 881.883365 107.475495 897.48931 113.533066 C 913.197927 119.487966 921.514253 122.670758 922.54096 122.97877 C 923.464996 123.286782 929.522567 125.340196 940.508332 129.036341 C 951.494096 132.629815 960.015764 135.504595 965.970664 137.455338 C 972.028235 139.508752 975.211027 140.535459 975.519039 140.535459 C 975.827051 140.535459 985.99145 143.512909 1006.012235 149.467809 C 1026.033021 155.52538 1038.456175 159.118855 1043.487039 160.453574 C 1048.517903 161.788293 1057.963607 164.047048 1072.029492 167.024498 C 1085.992707 170.001948 1098.21052 172.466045 1108.477589 174.519459 C 1118.847329 176.470202 1138.868115 180.166347 1168.539946 185.505223 C 1198.211777 190.844099 1216.38449 194.026891 1222.955414 194.950927 C 1229.629009 195.977634 1237.329312 197.209682 1245.95365 198.544402 C 1254.680659 199.879121 1263.304997 201.21384 1272.032007 202.548559 C 1280.656345 203.883278 1288.048635 205.423338 1294.208877 207.271411 L 1303.449239 210.043519 L 1302.01185 275.547423 C 1300.985143 319.182468 1298.521046 380.682215 1294.516889 460.046662 C 1290.512732 539.308439 1287.843294 588.17969 1286.508575 606.455074 C 1285.173856 624.833128 1283.017771 644.135219 1280.040321 664.464016 C 1276.9602 684.792814 1274.701445 699.988077 1272.956043 710.049805 C 1271.313312 720.008862 1269.157227 730.994627 1266.487789 743.007098 C 1263.818351 755.01957 1261.662266 764.978627 1260.019535 772.986941 C 1258.376804 780.995255 1256.32339 789.824935 1253.961964 799.475981 C 1251.703209 809.127026 1249.136442 819.188754 1246.467003 829.455824 C 1243.797565 839.825564 1240.512103 852.351389 1236.507946 867.033298 C 1232.503789 881.715207 1230.347704 889.826192 1230.039692 891.468923 C 1229.629009 893.214325 1226.856901 902.454688 1221.518025 919.498023 C 1216.179148 936.541359 1209.505553 955.535437 1201.497239 976.480259 C 1193.488925 997.527752 1188.868743 1009.334882 1187.534024 1012.00432 C 1186.199305 1014.673758 1184.043221 1020.012634 1180.9631 1028.020948 C 1177.98565 1036.029262 1171.620067 1050.197818 1161.969021 1070.526616 C 1152.317976 1090.855414 1145.54171 1104.715957 1141.537553 1112.005577 C 1137.533396 1119.295196 1131.373154 1130.486302 1123.262169 1145.476223 C 1115.048514 1160.466145 1110.633674 1168.474459 1109.709637 1169.501166 C 1108.888272 1170.527873 1105.808151 1175.456066 1100.469275 1184.491088 C 1095.130399 1193.526109 1090.099535 1201.739764 1085.274012 1209.234725 C 1080.448489 1216.729686 1076.547003 1222.581916 1073.774894 1226.791414 C 1070.900115 1230.898242 1067.101299 1236.750471 1062.275776 1244.245432 C 1057.450254 1251.740393 1053.240755 1257.900635 1049.749951 1262.726157 C 1046.259148 1267.55168 1042.768344 1272.377203 1039.277541 1277.202725 C 1035.786737 1282.130919 1032.911957 1286.032405 1030.755873 1289.215197 C 1028.599788 1292.397988 1026.751716 1295.067426 1025.211655 1297.223511 C 1023.774266 1299.379596 1021.104827 1303.075741 1017.203341 1308.209275 C 1013.404525 1313.445481 1009.70838 1318.373674 1006.217577 1323.199197 C 1002.726773 1328.12739 995.539824 1336.546387 984.759401 1348.7642 C 973.876308 1360.879342 967.716066 1367.96362 966.278676 1369.709022 C 964.738616 1371.557094 963.301226 1373.199825 961.966507 1374.534544 C 960.631788 1375.869263 956.011607 1380.797457 948.003292 1389.524466 C 939.994978 1398.148804 931.37064 1407.183826 922.027607 1416.526859 C 912.684573 1425.869892 906.627002 1431.722122 903.752223 1434.288889 C 900.877443 1436.752986 894.203848 1442.810557 883.526096 1452.461602 C 872.848344 1462.215318 864.224005 1469.91562 857.755751 1475.76785 C 851.287498 1481.62008 845.229927 1486.958956 839.78838 1491.784478 C 834.244162 1496.610001 826.54386 1503.283596 816.790144 1511.702593 C 806.933757 1520.224261 799.95215 1526.076491 795.742651 1529.259282 C 791.533153 1532.442074 786.091606 1536.754243 779.21267 1542.29846 C 772.436404 1547.740007 763.606724 1553.797578 752.72363 1560.265832 C 741.943207 1566.734086 734.550917 1571.251596 730.752101 1573.715693 C 726.953286 1576.282461 722.025092 1579.465252 715.967521 1583.264068 C 710.012621 1587.062884 706.624488 1589.42431 706.008464 1590.245675 C 705.289769 1591.067041 699.54021 1594.352503 688.451775 1599.999391 C 677.466011 1605.646279 668.53366 1609.855778 661.449382 1612.525216 L 650.976971 1616.529373 L 646.048778 1614.989313 C 642.660645 1613.962606 637.629781 1611.806521 630.956186 1608.521059 C 624.28259 1605.132926 617.506325 1601.642122 610.524717 1598.048648 C 603.54311 1594.352503 599.12827 1591.785736 597.485539 1590.451016 C 595.842808 1589.116297 592.660016 1586.857542 588.039835 1583.469409 C 583.316983 1580.183947 575.924693 1575.461095 565.760294 1569.300853 C 555.595895 1563.037941 548.716959 1558.931113 545.226155 1556.775028 C 541.735352 1554.618944 537.217841 1551.538823 531.776294 1547.740007 C 526.232077 1543.941192 518.942457 1538.088962 509.702095 1530.285989 C 500.564403 1522.380346 494.609502 1517.246811 491.734723 1514.782714 C 488.962614 1512.215947 483.110385 1507.287753 474.280705 1499.792793 C 465.451025 1492.297832 459.598795 1487.266968 456.724016 1484.7002 C 453.951907 1482.236104 449.845079 1478.539959 444.506203 1473.509095 C 439.167327 1468.478231 431.364354 1461.496623 420.994614 1452.461602 C 410.624874 1443.529252 404.875315 1438.293046 403.540596 1436.958327 C 402.205877 1435.623608 397.175013 1431.003427 388.550674 1422.995113 C 379.823665 1414.986798 374.279448 1409.545252 371.71268 1406.773143 C 369.248584 1403.898363 363.293683 1397.430109 353.745309 1387.265711 C 344.299605 1377.101312 336.599302 1368.784986 330.747073 1362.214061 C 324.894843 1355.745807 318.426589 1348.250846 311.239641 1339.729179 C 304.052692 1331.207511 298.611145 1324.225904 294.709659 1318.784357 C 290.910843 1313.240139 287.625381 1308.722629 284.750601 1305.231825 C 281.875822 1301.741022 279.822408 1298.866242 278.487689 1296.504816 C 277.15297 1294.14339 275.099556 1291.268611 272.224777 1287.777807 C 269.452668 1284.287003 266.577888 1280.385517 263.703109 1276.278689 C 260.931 1272.069191 258.466903 1268.270375 256.208148 1264.779571 C 254.052064 1261.288768 251.99865 1258.311317 250.047906 1255.949891 C 247.994493 1253.691136 246.043749 1251.124369 244.298348 1248.249589 C 242.450275 1245.37481 240.807544 1242.808042 239.472825 1240.549287 C 238.138106 1238.187861 235.982021 1234.799728 233.004571 1230.487559 C 230.027121 1226.17539 226.125634 1220.22049 221.300112 1212.725529 C 216.371918 1205.230568 212.881115 1199.789021 210.72503 1196.298218 C 208.568946 1192.704743 206.20752 1188.700586 203.743423 1184.285746 C 201.279326 1179.768236 198.9179 1175.764079 196.761816 1172.273275 C 194.605731 1168.782471 192.141634 1164.470302 189.472196 1159.542109 C 186.802758 1154.511245 181.977236 1145.989577 174.995628 1133.977106 C 168.014021 1121.964634 164.009864 1115.188368 162.983157 1113.545637 C 161.95645 1111.800235 159.800365 1107.488066 156.514903 1100.506459 C 153.12677 1093.524852 149.533296 1086.132562 145.529139 1078.53493 C 141.524982 1070.834628 137.007471 1060.978241 131.976607 1048.96577 C 127.048414 1036.953299 122.530903 1025.967534 118.526746 1016.008477 C 114.522589 1006.049419 110.31309 994.960984 106.000921 983.051184 C 101.688752 971.038712 97.992607 961.182326 95.015157 953.482023 C 92.037707 945.884392 88.957586 936.952041 85.980135 926.992984 C 83.002685 917.033927 80.230577 908.61493 77.76648 901.735993 C 75.199712 894.959727 74.070335 891.263582 74.275676 890.750229 C 74.378347 890.236875 73.146299 885.308682 70.476861 875.965649 C 67.807422 866.622615 64.008607 852.043377 58.977743 832.022591 C 54.049549 812.001805 50.866758 799.37331 49.532039 794.034434 C 48.19732 788.695558 46.041235 779.044512 42.961114 764.978627 C 39.983664 751.015412 37.314226 738.489588 34.9528 727.503823 C 32.694045 716.518059 30.332619 703.684222 27.971193 689.002313 C 25.712437 674.320403 23.864365 661.691908 22.529646 651.014155 C 21.194927 640.336403 19.449525 619.494252 17.498782 588.487702 C 15.548039 557.481152 14.007978 532.326832 12.981271 513.024741 C 11.954564 493.61998 11.030528 475.036584 10.003821 456.966541 C 8.977114 438.99917 7.334383 405.528523 4.972957 356.451931 C 2.714202 307.478009 1.482153 271.029912 1.482153 247.00497 L 1.482153 210.967556 L 4.767616 209.222154 C 6.9237 208.092776 15.650709 206.347374 31.051314 203.985948 C 46.349247 201.624522 54.357561 200.289803 54.973586 199.981791 C 55.69228 199.673779 61.133827 198.647072 71.503567 197.004341 C 81.873308 195.36161 93.372426 193.513537 106.000921 191.460124 C 118.629417 189.50938 133.516667 187.045284 150.457332 183.965163 C 167.500667 180.987713 187.213441 177.188897 209.492982 172.466045 C 231.875193 167.845864 250.355919 163.636365 265.037828 160.042891 C 279.617067 156.346746 297.173756 151.315882 317.502553 144.950299 C 337.831351 138.687386 350.151834 134.7859 354.464003 133.451181 C 358.878843 132.116462 371.301997 127.701622 392.041478 120.00132 C 412.678288 112.301018 429.31094 105.832764 442.042106 100.493888 C 454.670602 95.155011 463.808294 91.356196 469.455182 88.99477 C 475.204741 86.633344 488.038578 80.781114 508.264705 71.232739 C 528.388161 61.787036 539.784608 56.448159 542.248705 55.216111 C 544.712802 54.086733 552.207762 50.493259 564.528246 44.538359 C 576.848729 38.480788 585.986421 33.963277 592.043992 30.985827 C 597.998892 28.008377 606.007207 24.00422 615.966264 18.973356 C 626.027992 14.045162 632.290905 10.862371 634.960343 9.527652 C 637.629781 8.192933 639.991207 6.858214 642.044621 5.523495 C 643.995364 4.188775 645.535424 3.162069 646.459461 2.546044 L 647.999521 1.519337 Z M 653.030385 1.519337 " stroke="#000000" stroke-width="2" stroke-opacity="1" stroke-miterlimit="4"/></g><g clip-path="url(#0469a6d337)"><path stroke-linecap="butt" transform="matrix(0.0380464, 0, 0, 0.0380464, 46.049078, 25.23907)" fill-opacity="1" fill="#0092e6" fill-rule="evenodd" stroke-linejoin="miter" d="M 653.030385 1.519337 L 657.958579 1.519337 L 670.997757 8.500945 C 679.622095 13.121126 688.759787 17.946649 698.205491 22.772171 C 707.753866 27.597694 713.914107 30.780486 716.788887 32.217875 C 719.560996 33.757936 721.306397 34.681972 722.025092 34.989984 C 722.641116 35.297996 727.979993 37.967434 738.041721 42.998298 C 748.000778 48.029162 757.549153 52.546673 766.481503 56.55083 C 775.516525 60.452316 781.163413 63.121755 783.524839 64.456474 C 785.783594 65.791193 789.68508 67.639265 795.023957 70.000691 C 800.362833 72.362117 804.36699 74.21019 807.036428 75.544909 C 809.705866 76.879628 815.455425 79.549066 824.490446 83.450552 C 833.525467 87.454709 843.997878 91.97222 856.01035 97.003084 C 868.022821 102.033948 881.883365 107.475495 897.48931 113.533066 C 913.197927 119.487966 921.514253 122.670758 922.54096 122.97877 C 923.464996 123.286782 929.522567 125.340196 940.508332 129.036341 C 951.494096 132.629815 960.015764 135.504595 965.970664 137.455338 C 972.028235 139.508752 975.211027 140.535459 975.519039 140.535459 C 975.827051 140.535459 985.99145 143.512909 1006.012235 149.467809 C 1026.033021 155.52538 1038.456175 159.118855 1043.487039 160.453574 C 1048.517903 161.788293 1057.963607 164.047048 1072.029492 167.024498 C 1085.992707 170.001948 1098.21052 172.466045 1108.477589 174.519459 C 1118.847329 176.470202 1138.868115 180.166347 1168.539946 185.505223 C 1198.211777 190.844099 1216.38449 194.026891 1222.955414 194.950927 C 1229.629009 195.977634 1237.329312 197.209682 1245.95365 198.544402 C 1254.680659 199.879121 1263.304997 201.21384 1272.032007 202.548559 C 1280.656345 203.883278 1288.048635 205.423338 1294.208877 207.271411 L 1303.449239 210.043519 L 1302.01185 275.547423 C 1300.985143 319.182468 1298.521046 380.682215 1294.516889 460.046662 C 1290.512732 539.308439 1287.843294 588.17969 1286.508575 606.455074 C 1285.173856 624.833128 1283.017771 644.135219 1280.040321 664.464016 C 1276.9602 684.792814 1274.701445 699.988077 1272.956043 710.049805 C 1271.313312 720.008862 1269.157227 730.994627 1266.487789 743.007098 C 1263.818351 755.01957 1261.662266 764.978627 1260.019535 772.986941 C 1258.376804 780.995255 1256.32339 789.824935 1253.961964 799.475981 C 1251.703209 809.127026 1249.136442 819.188754 1246.467003 829.455824 C 1243.797565 839.825564 1240.512103 852.351389 1236.507946 867.033298 C 1232.503789 881.715207 1230.347704 889.826192 1230.039692 891.468923 C 1229.629009 893.214325 1226.856901 902.454688 1221.518025 919.498023 C 1216.179148 936.541359 1209.505553 955.535437 1201.497239 976.480259 C 1193.488925 997.527752 1188.868743 1009.334882 1187.534024 1012.00432 C 1186.199305 1014.673758 1184.043221 1020.012634 1180.9631 1028.020948 C 1177.98565 1036.029262 1171.620067 1050.197818 1161.969021 1070.526616 C 1152.317976 1090.855414 1145.54171 1104.715957 1141.537553 1112.005577 C 1137.533396 1119.295196 1131.373154 1130.486302 1123.262169 1145.476223 C 1115.048514 1160.466145 1110.633674 1168.474459 1109.709637 1169.501166 C 1108.888272 1170.527873 1105.808151 1175.456066 1100.469275 1184.491088 C 1095.130399 1193.526109 1090.099535 1201.739764 1085.274012 1209.234725 C 1080.448489 1216.729686 1076.547003 1222.581916 1073.774894 1226.791414 C 1070.900115 1230.898242 1067.101299 1236.750471 1062.275776 1244.245432 C 1057.450254 1251.740393 1053.240755 1257.900635 1049.749951 1262.726157 C 1046.259148 1267.55168 1042.768344 1272.377203 1039.277541 1277.202725 C 1035.786737 1282.130919 1032.911957 1286.032405 1030.755873 1289.215197 C 1028.599788 1292.397988 1026.751716 1295.067426 1025.211655 1297.223511 C 1023.774266 1299.379596 1021.104827 1303.075741 1017.203341 1308.209275 C 1013.404525 1313.445481 1009.70838 1318.373674 1006.217577 1323.199197 C 1002.726773 1328.12739 995.539824 1336.546387 984.759401 1348.7642 C 973.876308 1360.879342 967.716066 1367.96362 966.278676 1369.709022 C 964.738616 1371.557094 963.301226 1373.199825 961.966507 1374.534544 C 960.631788 1375.869263 956.011607 1380.797457 948.003292 1389.524466 C 939.994978 1398.148804 931.37064 1407.183826 922.027607 1416.526859 C 912.684573 1425.869892 906.627002 1431.722122 903.752223 1434.288889 C 900.877443 1436.752986 894.203848 1442.810557 883.526096 1452.461602 C 872.848344 1462.215318 864.224005 1469.91562 857.755751 1475.76785 C 851.287498 1481.62008 845.229927 1486.958956 839.78838 1491.784478 C 834.244162 1496.610001 826.54386 1503.283596 816.790144 1511.702593 C 806.933757 1520.224261 799.95215 1526.076491 795.742651 1529.259282 C 791.533153 1532.442074 786.091606 1536.754243 779.21267 1542.29846 C 772.436404 1547.740007 763.606724 1553.797578 752.72363 1560.265832 C 741.943207 1566.734086 734.550917 1571.251596 730.752101 1573.715693 C 726.953286 1576.282461 722.025092 1579.465252 715.967521 1583.264068 C 710.012621 1587.062884 706.624488 1589.42431 706.008464 1590.245675 C 705.289769 1591.067041 699.54021 1594.352503 688.451775 1599.999391 C 677.466011 1605.646279 668.53366 1609.855778 661.449382 1612.525216 L 650.976971 1616.529373 L 646.048778 1614.989313 C 642.660645 1613.962606 637.629781 1611.806521 630.956186 1608.521059 C 624.28259 1605.132926 617.506325 1601.642122 610.524717 1598.048648 C 603.54311 1594.352503 599.12827 1591.785736 597.485539 1590.451016 C 595.842808 1589.116297 592.660016 1586.857542 588.039835 1583.469409 C 583.316983 1580.183947 575.924693 1575.461095 565.760294 1569.300853 C 555.595895 1563.037941 548.716959 1558.931113 545.226155 1556.775028 C 541.735352 1554.618944 537.217841 1551.538823 531.776294 1547.740007 C 526.232077 1543.941192 518.942457 1538.088962 509.702095 1530.285989 C 500.564403 1522.380346 494.609502 1517.246811 491.734723 1514.782714 C 488.962614 1512.215947 483.110385 1507.287753 474.280705 1499.792793 C 465.451025 1492.297832 459.598795 1487.266968 456.724016 1484.7002 C 453.951907 1482.236104 449.845079 1478.539959 444.506203 1473.509095 C 439.167327 1468.478231 431.364354 1461.496623 420.994614 1452.461602 C 410.624874 1443.529252 404.875315 1438.293046 403.540596 1436.958327 C 402.205877 1435.623608 397.175013 1431.003427 388.550674 1422.995113 C 379.823665 1414.986798 374.279448 1409.545252 371.71268 1406.773143 C 369.248584 1403.898363 363.293683 1397.430109 353.745309 1387.265711 C 344.299605 1377.101312 336.599302 1368.784986 330.747073 1362.214061 C 324.894843 1355.745807 318.426589 1348.250846 311.239641 1339.729179 C 304.052692 1331.207511 298.611145 1324.225904 294.709659 1318.784357 C 290.910843 1313.240139 287.625381 1308.722629 284.750601 1305.231825 C 281.875822 1301.741022 279.822408 1298.866242 278.487689 1296.504816 C 277.15297 1294.14339 275.099556 1291.268611 272.224777 1287.777807 C 269.452668 1284.287003 266.577888 1280.385517 263.703109 1276.278689 C 260.931 1272.069191 258.466903 1268.270375 256.208148 1264.779571 C 254.052064 1261.288768 251.99865 1258.311317 250.047906 1255.949891 C 247.994493 1253.691136 246.043749 1251.124369 244.298348 1248.249589 C 242.450275 1245.37481 240.807544 1242.808042 239.472825 1240.549287 C 238.138106 1238.187861 235.982021 1234.799728 233.004571 1230.487559 C 230.027121 1226.17539 226.125634 1220.22049 221.300112 1212.725529 C 216.371918 1205.230568 212.881115 1199.789021 210.72503 1196.298218 C 208.568946 1192.704743 206.20752 1188.700586 203.743423 1184.285746 C 201.279326 1179.768236 198.9179 1175.764079 196.761816 1172.273275 C 194.605731 1168.782471 192.141634 1164.470302 189.472196 1159.542109 C 186.802758 1154.511245 181.977236 1145.989577 174.995628 1133.977106 C 168.014021 1121.964634 164.009864 1115.188368 162.983157 1113.545637 C 161.95645 1111.800235 159.800365 1107.488066 156.514903 1100.506459 C 153.12677 1093.524852 149.533296 1086.132562 145.529139 1078.53493 C 141.524982 1070.834628 137.007471 1060.978241 131.976607 1048.96577 C 127.048414 1036.953299 122.530903 1025.967534 118.526746 1016.008477 C 114.522589 1006.049419 110.31309 994.960984 106.000921 983.051184 C 101.688752 971.038712 97.992607 961.182326 95.015157 953.482023 C 92.037707 945.884392 88.957586 936.952041 85.980135 926.992984 C 83.002685 917.033927 80.230577 908.61493 77.76648 901.735993 C 75.199712 894.959727 74.070335 891.263582 74.275676 890.750229 C 74.378347 890.236875 73.146299 885.308682 70.476861 875.965649 C 67.807422 866.622615 64.008607 852.043377 58.977743 832.022591 C 54.049549 812.001805 50.866758 799.37331 49.532039 794.034434 C 48.19732 788.695558 46.041235 779.044512 42.961114 764.978627 C 39.983664 751.015412 37.314226 738.489588 34.9528 727.503823 C 32.694045 716.518059 30.332619 703.684222 27.971193 689.002313 C 25.712437 674.320403 23.864365 661.691908 22.529646 651.014155 C 21.194927 640.336403 19.449525 619.494252 17.498782 588.487702 C 15.548039 557.481152 14.007978 532.326832 12.981271 513.024741 C 11.954564 493.61998 11.030528 475.036584 10.003821 456.966541 C 8.977114 438.99917 7.334383 405.528523 4.972957 356.451931 C 2.714202 307.478009 1.482153 271.029912 1.482153 247.00497 L 1.482153 210.967556 L 4.767616 209.222154 C 6.9237 208.092776 15.650709 206.347374 31.051314 203.985948 C 46.349247 201.624522 54.357561 200.289803 54.973586 199.981791 C 55.69228 199.673779 61.133827 198.647072 71.503567 197.004341 C 81.873308 195.36161 93.372426 193.513537 106.000921 191.460124 C 118.629417 189.50938 133.516667 187.045284 150.457332 183.965163 C 167.500667 180.987713 187.213441 177.188897 209.492982 172.466045 C 231.875193 167.845864 250.355919 163.636365 265.037828 160.042891 C 279.617067 156.346746 297.173756 151.315882 317.502553 144.950299 C 337.831351 138.687386 350.151834 134.7859 354.464003 133.451181 C 358.878843 132.116462 371.301997 127.701622 392.041478 120.00132 C 412.678288 112.301018 429.31094 105.832764 442.042106 100.493888 C 454.670602 95.155011 463.808294 91.356196 469.455182 88.99477 C 475.204741 86.633344 488.038578 80.781114 508.264705 71.232739 C 528.388161 61.787036 539.784608 56.448159 542.248705 55.216111 C 544.712802 54.086733 552.207762 50.493259 564.528246 44.538359 C 576.848729 38.480788 585.986421 33.963277 592.043992 30.985827 C 597.998892 28.008377 606.007207 24.00422 615.966264 18.973356 C 626.027992 14.045162 632.290905 10.862371 634.960343 9.527652 C 637.629781 8.192933 639.991207 6.858214 642.044621 5.523495 C 643.995364 4.188775 645.535424 3.162069 646.459461 2.546044 L 647.999521 1.519337 Z M 653.030385 1.519337 " stroke="#000000" stroke-width="2" stroke-opacity="1" stroke-miterlimit="4"/></g><g fill="#ffffff" fill-opacity="1"><g transform="translate(156.401093, 60.104227)"><g><path d="M 21.453125 0.828125 L 29.796875 -20.875 L 26.046875 -20.875 L 21.453125 -8.5625 L 16.859375 -20.875 L 12.96875 -20.875 L 8.375 -8.5625 L 3.8125 -20.875 L 0.0625 -20.875 L 8.375 0.828125 L 14.90625 -16.34375 Z M 21.453125 0.828125 "/></g></g></g><g fill="#ffffff" fill-opacity="1"><g transform="translate(186.261435, 60.104227)"><g><path d="M 9.453125 -5.671875 C 13.71875 -5.671875 17.203125 -9.15625 17.203125 -13.421875 C 17.203125 -17.6875 13.71875 -21.171875 9.453125 -21.171875 C 5.1875 -21.171875 1.703125 -17.6875 1.703125 -13.421875 C 1.703125 -9.15625 5.1875 -5.671875 9.453125 -5.671875 Z M 9.453125 -17.71875 C 11.84375 -17.71875 13.75 -15.8125 13.75 -13.421875 C 13.75 -11.03125 11.84375 -9.125 9.453125 -9.125 C 7.0625 -9.125 5.15625 -11.03125 5.15625 -13.421875 C 5.15625 -15.8125 7.0625 -17.71875 9.453125 -17.71875 Z M 16.25 0 L 16.25 -3.453125 L 2.46875 -3.453125 L 2.46875 0 Z M 16.25 0 "/></g></g></g><g fill="#ffffff" fill-opacity="1"><g transform="translate(205.293302, 60.104227)"><g><path d="M 5.84375 -3.484375 L 5.84375 -20.875 L 2.359375 -20.875 L 2.359375 0 L 13.578125 0 L 13.578125 -3.484375 Z M 5.84375 -3.484375 "/></g></g></g><g fill="#ffffff" fill-opacity="1"><g transform="translate(220.238385, 60.104227)"><g><path d="M 10.140625 -10.265625 L 18.765625 -20.875 L 14.40625 -20.875 L 5.84375 -10.34375 L 5.84375 -20.875 L 2.359375 -20.875 L 2.359375 0 L 5.84375 0 L 5.84375 -5.734375 L 7.8125 -7.9375 L 14.265625 0 L 18.828125 0 Z M 10.140625 -10.265625 "/></g></g></g><g fill="#ffffff" fill-opacity="1"><g transform="translate(196.977202, 81.839252)"><g><path d="M 3.234375 -8.25 L 4.3125 -8.25 L 4.3125 -9.75 L 0.515625 -9.75 L 0.515625 -8.25 L 1.59375 -8.25 L 1.59375 -1.484375 L 0.453125 -1.484375 L 0.453125 0 L 4.375 0 L 4.375 -1.484375 L 3.234375 -1.484375 Z M 3.234375 -8.25 "/></g></g></g><g fill="#ffffff" fill-opacity="1"><g transform="translate(210.691924, 81.839252)"><g><path d="M 9.21875 0 L 9.21875 -9.75 L 7.59375 -9.75 L 7.59375 -2.8125 L 2.75 -9.75 L 1.09375 -9.75 L 1.09375 0 L 2.734375 0 L 2.734375 -6.9375 L 7.578125 0 Z M 9.21875 0 "/></g></g></g><g fill="#ffffff" fill-opacity="1"><g transform="translate(229.862714, 81.839252)"><g><path d="M 5.65625 -1.484375 C 3.859375 -1.484375 2.421875 -2.78125 2.421875 -4.875 C 2.421875 -6.828125 3.640625 -8.25 5.65625 -8.25 C 6.546875 -8.25 7.359375 -7.890625 7.953125 -7.3125 L 9.09375 -8.453125 C 8.21875 -9.34375 7 -9.890625 5.65625 -9.890625 C 2.796875 -9.890625 0.765625 -7.8125 0.765625 -4.875 C 0.765625 -1.8125 2.96875 0.140625 5.65625 0.140625 C 7 0.140625 8.21875 -0.40625 9.09375 -1.28125 L 7.953125 -2.4375 C 7.359375 -1.859375 6.546875 -1.484375 5.65625 -1.484375 Z M 5.65625 -1.484375 "/></g></g></g></svg>